PathFileType	3	(X/Y/Z)	RCH0000002 BBF 06.c3d
DataRate	CameraRate	NumFrames	NumMarkers	Units	OrigDataRate	OrigDataStartFrame	OrigNumFrames
100.0	100.0	14	23	mm	100.0	560	380
Frame#	Time	LASI			RASI			LPAT			LKNE			LANK			LMED			LTOE			RPAT			RKNE			RANK			RTOE			RMED			RHEE			RPSI			T2			T10			LPSI			LHEE			MAN			RTHI			LTHI			RTIB			LTIB			
		X1	Y1	Z1	X2	Y2	Z2	X3	Y3	Z3	X4	Y4	Z4	X5	Y5	Z5	X6	Y6	Z6	X7	Y7	Z7	X8	Y8	Z8	X9	Y9	Z9	X10	Y10	Z10	X11	Y11	Z11	X12	Y12	Z12	X13	Y13	Z13	X14	Y14	Z14	X15	Y15	Z15	X16	Y16	Z16	X17	Y17	Z17	X18	Y18	Z18	X19	Y19	Z19	X20	Y20	Z20	X21	Y21	Z21	X22	Y22	Z22	X23	Y23	Z23	

560	5.590	1096.58642	93.24081	631.25337	1141.53866	-74.82735	650.60884	1107.92310	65.15207	344.92943	1046.89173	116.48015	320.85659	854.57665	127.56040	134.40204	868.11028	58.21588	136.16099	890.16818	97.02446	95.11038	1178.05312	-11.50601	378.45419	1149.81892	-74.24690	339.73460	1095.29935	-101.10805	73.01067	1130.29933	-56.38393	68.54378	1068.67530	-36.37253	83.85855	1044.07913	-82.18494	104.39950	1018.35695	-48.63866	696.19703	984.06115	-11.68570	962.05088	1018.69458	-2.13868	777.11830	1001.10915	19.28573	686.25370	844.23855	83.51416	176.74157	1114.43374	20.07803	949.22355	1166.92824	-144.14538	449.81624	1039.13095	175.43458	451.06585	1141.20193	-150.05808	229.54232	966.09286	183.23659	248.68909	
561	5.600	1105.47058	91.26828	631.86912	1149.17619	-77.03687	653.10375	1124.37754	63.64409	347.94752	1063.55742	114.76056	322.45690	871.42686	124.58758	136.44260	886.30712	55.43851	137.19892	907.84379	95.30702	97.10775	1178.81861	-15.01087	378.78423	1150.11441	-77.76251	340.71652	1095.44086	-102.07397	73.26970	1130.31334	-57.15910	68.80343	1068.71336	-37.54423	84.80338	1044.16287	-83.55151	104.95513	1026.40173	-49.30951	698.95020	991.91454	-12.18887	963.43195	1026.85693	-2.01378	778.60939	1009.54336	18.67596	688.07516	861.85010	79.78414	177.89339	1122.25323	19.74695	950.74653	1170.43728	-147.27502	450.52520	1052.18402	173.54557	452.48937	1140.91779	-152.70381	229.48706	981.91848	180.69287	251.23512	
562	5.610	1114.16437	89.31266	632.85318	1156.48201	-79.29755	655.57515	1140.52611	62.49202	351.74423	1079.85122	113.21240	324.72046	889.12358	121.19658	137.83269	905.68399	52.33113	137.76288	926.80067	93.39813	98.86351	1179.42348	-18.59490	379.21126	1150.16710	-81.31398	341.78375	1095.70441	-102.96907	73.56953	1130.50514	-57.88631	69.07015	1068.95494	-38.63057	85.76737	1044.36574	-84.79231	105.50910	1034.16177	-50.03733	701.67951	999.71691	-12.49104	965.07089	1034.73711	-2.00996	780.32318	1017.75131	18.00988	690.08619	880.22146	75.53743	178.31127	1130.03040	19.48929	952.36598	1173.51426	-150.45946	451.26147	1064.83044	171.88914	454.43558	1140.46476	-155.37087	229.51555	997.45729	178.05667	253.92471	
563	5.620	1122.68383	87.39966	634.14765	1163.47339	-81.58260	657.97164	1156.36515	61.71073	356.21010	1095.78009	111.84221	327.54846	907.62963	117.42766	138.55057	926.12155	48.92847	137.88192	946.91932	91.26891	100.33869	1179.97165	-22.19124	379.69437	1150.07586	-84.82518	342.89091	1096.06585	-103.78231	73.91239	1130.85134	-58.56085	69.33821	1069.38320	-39.61533	86.74486	1044.68173	-85.88238	106.07720	1041.64779	-50.79463	704.31688	1007.48613	-12.63335	966.91862	1042.35479	-2.13646	782.20241	1025.74065	17.31784	692.20661	899.29869	70.86311	178.03494	1137.77986	19.28149	954.03660	1176.21398	-153.64463	451.98762	1077.08078	170.48145	456.79535	1139.90628	-158.00354	229.61189	1012.77529	175.35462	256.61425	
564	5.630	1131.04915	85.55094	635.68173	1170.16804	-83.86627	660.24928	1171.90696	61.27955	361.21758	1111.38152	110.63920	330.82291	926.91091	113.34606	138.61034	947.48373	45.28267	137.61347	968.06648	88.90226	101.51609	1180.55551	-25.73941	380.19870	1149.93022	-88.22660	343.99963	1096.49603	-104.50512	74.30024	1131.32157	-59.17931	69.60556	1069.97181	-40.48473	87.73293	1045.09604	-86.80311	106.67497	1048.87087	-51.54661	706.80112	1015.23896	-12.65849	968.91996	1049.73250	-2.38962	784.18568	1033.52082	16.63728	694.35215	919.02568	65.87929	177.13837	1145.51551	19.09989	955.71030	1178.59192	-156.77963	452.67521	1088.97417	169.32161	459.44091	1139.29588	-160.55012	229.76279	1027.97903	172.61536	259.16425	
565	5.640	1139.28399	83.78292	637.37650	1176.58379	-86.12477	662.37273	1187.17361	61.14226	366.63001	1126.71522	109.57498	334.41673	946.93319	109.03968	138.05958	969.62357	41.46089	137.03546	990.10211	86.29741	102.40027	1181.25053	-29.18623	380.69452	1149.80627	-91.45852	345.07840	1096.96482	-105.13181	74.73203	1131.88306	-59.73969	69.87170	1070.68916	-41.22828	88.72842	1045.58808	-87.54320	107.31355	1055.84297	-52.25389	709.07972	1022.99019	-12.60780	971.01625	1056.89446	-2.75368	786.21037	1041.10363	16.00947	696.43890	939.34199	60.72511	175.72051	1153.24981	18.92198	957.33813	1180.70309	-159.81756	453.30426	1100.57236	168.39091	462.23661	1138.67616	-162.96526	229.95649	1043.20220	169.86927	261.45504	
566	5.650	1147.41488	82.10584	639.14993	1182.73873	-88.33711	664.31576	1202.19068	61.21018	372.30962	1141.85343	108.60491	338.20297	967.65915	104.61446	136.97353	992.38929	37.54163	136.23602	1012.88576	83.47221	103.01496	1182.11173	-32.48643	381.15656	1149.76389	-94.47299	346.10224	1097.44328	-105.65887	75.20245	1132.50352	-60.24097	70.13626	1071.50172	-41.83856	89.72600	1046.13361	-88.09770	107.99758	1062.57776	-52.87561	711.11028	1030.75182	-12.51863	973.14789	1063.86567	-3.20240	788.21544	1048.50424	15.47612	698.38770	960.18150	55.55109	173.89370	1160.99314	18.72764	958.87232	1182.60041	-162.71655	453.86213	1111.95293	167.65355	465.04929	1138.07758	-165.21142	230.18200	1058.59057	167.14748	263.39842	
567	5.660	1155.47080	80.52327	640.92157	1188.65158	-90.48570	666.06126	1216.98139	61.36828	378.12361	1156.87091	107.67079	342.06243	989.04630	100.18776	135.44658	1015.62998	33.60992	135.30242	1036.28205	80.46269	103.39818	1183.17247	-35.60309	381.56374	1149.84547	-97.23493	347.05255	1097.90448	-106.08373	75.70224	1133.15283	-60.68234	70.39812	1072.37642	-42.31030	90.71759	1046.70641	-88.46572	108.72493	1069.09168	-53.37231	712.86121	1038.53260	-12.42209	975.25679	1070.67148	-3.70142	790.14391	1055.74213	15.07624	700.12814	981.47230	50.50904	171.77108	1168.75341	18.50017	960.26818	1184.33306	-165.44098	454.34217	1123.20250	167.05887	467.75762	1137.51769	-167.25953	230.42876	1074.28705	164.48014	264.94359	
568	5.670	1163.48273	79.03199	642.61667	1194.34236	-92.55695	667.60079	1231.56155	61.48314	383.94823	1171.83550	106.70471	345.88902	1011.04570	95.88018	133.58216	1039.20059	29.75173	134.31059	1060.16436	77.32001	103.59597	1184.44554	-38.50811	381.89906	1150.07630	-99.72242	347.91680	1098.32367	-106.40337	76.21952	1133.80375	-61.06242	70.65522	1073.28254	-42.63926	91.69288	1047.27994	-88.64790	109.48793	1075.40500	-53.70872	714.31200	1046.33781	-12.34129	977.28845	1077.33744	-4.21111	791.94483	1062.84209	14.84347	701.60170	1003.13772	45.74217	169.45490	1176.53581	18.22709	961.48588	1185.94498	-167.96279	454.74249	1134.41055	166.54478	470.25933	1137.00122	-169.08905	230.68661	1090.41809	161.89403	266.07717	
569	5.680	1171.48346	77.62242	644.16942	1199.83315	-94.54155	668.93370	1245.93556	61.41237	389.67071	1186.80008	105.63363	349.59260	1033.60154	91.80670	131.48236	1062.96558	26.04822	133.31665	1084.41673	74.10493	103.65534	1185.92628	-41.18266	382.14972	1150.46633	-101.92615	348.68831	1098.67847	-106.61357	76.74165	1134.43229	-61.37880	70.90477	1074.19306	-42.82146	92.64055	1047.82899	-88.64450	110.27547	1081.54275	-53.85584	715.45284	1054.16932	-12.29028	979.19363	1083.88942	-4.68955	793.57470	1069.83486	14.80394	702.76395	1025.09800	41.37628	167.02690	1184.34285	17.90076	962.49194	1187.47388	-170.26257	455.06489	1145.66428	166.04231	472.47603	1136.52150	-170.68752	230.94621	1107.08269	159.40991	266.81783	
570	5.690	1179.50715	76.27928	645.52526	1205.14889	-96.43461	670.06603	1260.09393	61.01432	395.18943	1201.79651	104.38434	353.09933	1056.65088	88.06767	129.23852	1086.80101	22.56999	132.35131	1108.93353	70.88083	103.61750	1187.59728	-43.61740	382.30710	1151.01344	-103.84837	349.36584	1098.94933	-106.70880	77.25720	1135.01800	-61.62810	71.14368	1075.08569	-42.85312	93.54993	1048.33153	-88.45469	111.07560	1087.53538	-53.79262	716.28378	1062.02596	-12.27363	980.92966	1090.35395	-5.09554	794.99830	1076.75726	14.97499	703.58567	1047.27205	37.51231	164.54205	1192.17459	17.51859	963.26039	1188.95115	-172.33028	455.31405	1157.04439	165.48048	474.35537	1136.06349	-172.04993	231.19958	1124.34442	157.03992	267.20703	
571	5.700	1187.58899	74.98278	646.64211	1210.31806	-98.23560	671.00907	1274.01234	60.15767	400.41279	1216.83196	102.88830	356.35002	1080.12303	84.74071	126.92370	1110.59476	19.37200	131.41762	1133.61705	67.70608	103.51213	1189.43404	-45.81244	382.36678	1151.70769	-105.50123	349.95301	1099.12049	-106.68322	77.75760	1135.54434	-61.80646	71.36918	1075.94359	-42.73128	94.41270	1048.77057	-88.07719	111.87787	1093.41898	-53.50684	716.81346	1069.90403	-12.28672	982.46110	1096.75867	-5.39135	796.18902	1083.65189	15.36450	704.05286	1069.57845	34.22082	162.02597	1200.02905	17.08306	963.77352	1190.40269	-174.16539	455.49690	1168.62155	164.79118	475.87052	1135.60807	-173.17791	231.44075	1142.22671	154.78554	267.29784	
572	5.710	1195.76450	73.70994	647.49070	1215.37329	-99.94812	671.77786	1287.65242	58.73008	405.25740	1231.88762	101.08618	359.29705	1103.93806	81.87415	124.58793	1134.24480	16.48930	130.49218	1158.37326	64.62687	103.35340	1191.41103	-47.77672	382.32833	1152.53617	-106.90481	350.45753	1099.18137	-106.53221	78.23828	1135.99928	-61.91055	71.57935	1076.75591	-42.45525	95.22424	1049.13578	-87.51208	112.67535	1099.23515	-52.99554	717.05752	1077.79803	-12.31660	983.76013	1103.13271	-5.54505	797.12859	1090.56608	15.97081	704.16574	1091.93529	31.53830	159.47620	1207.90272	16.60147	964.02228	1191.85081	-175.77619	455.62206	1180.45333	163.91333	477.01733	1135.13719	-174.07899	231.66645	1160.71089	152.63625	267.14382	
573	5.720	1204.06863	72.43617	648.05406	1220.35160	-101.57945	672.38965	1300.96423	56.64554	409.64633	1246.91977	98.93159	361.90056	1128.00404	79.48273	122.25644	1157.65543	13.93421	129.52941	1183.10596	61.67148	103.13809	1193.50732	-49.52691	382.19492	1153.48815	-108.08484	350.89009	1099.12805	-106.25438	78.69916	1136.37597	-61.93875	71.77355	1077.51807	-42.02814	95.98462	1049.42478	-86.76316	113.46596	1105.03032	-52.26496	717.03694	1085.70145	-12.34332	984.80648	1109.50704	-5.53239	797.80651	1097.55036	16.78323	703.93705	1114.25817	29.46558	156.86675	1215.79128	16.08538	964.00625	1193.31685	-177.17858	455.69927	1192.58140	162.79613	477.80946	1134.63914	-174.76584	231.87644	1179.73664	150.56936	266.78956	
